<?xml version="1.0" encoding="UTF-8" standalone="no"?>
<!-- Created with Inkscape (http://www.inkscape.org/) -->

<svg
   width="140mm"
   height="40mm"
   viewBox="0 0 140 40"
   version="1.1"
   id="svg1"
   xml:space="preserve"
   inkscape:version="1.3 (0e150ed6c4, 2023-07-21)"
   sodipodi:docname="yaml-tools-logo.svg"
   xmlns:inkscape="http://www.inkscape.org/namespaces/inkscape"
   xmlns:sodipodi="http://sodipodi.sourceforge.net/DTD/sodipodi-0.dtd"
   xmlns="http://www.w3.org/2000/svg"
   xmlns:svg="http://www.w3.org/2000/svg"><sodipodi:namedview
     id="namedview1"
     pagecolor="#ffffff"
     bordercolor="#000000"
     borderopacity="0.25"
     inkscape:showpageshadow="2"
     inkscape:pageopacity="0.0"
     inkscape:pagecheckerboard="0"
     inkscape:deskcolor="#d1d1d1"
     inkscape:document-units="mm"
     inkscape:zoom="0.72426347"
     inkscape:cx="218.84301"
     inkscape:cy="464.60993"
     inkscape:window-width="1920"
     inkscape:window-height="1009"
     inkscape:window-x="1912"
     inkscape:window-y="-8"
     inkscape:window-maximized="1"
     inkscape:current-layer="text1" /><defs
     id="defs1"><rect
       x="190.53841"
       y="414.2139"
       width="389.36108"
       height="92.507774"
       id="rect1" /></defs><g
     inkscape:label="Layer 1"
     inkscape:groupmode="layer"
     id="layer1"><g
       id="text1"
       transform="matrix(0.35279034,0,0,0.66807518,-29.114915,-168.43073)"><g
         id="g1"
         transform="translate(-73.52035,-184.82354)"><path
           style="color:#000000;-inkscape-font-specification:'Arial Bold';fill:#1e50a3;-inkscape-stroke:none"
           d="m 220.9565,467.99352 -7.96875,-1.4375 c 0.89583,-3.20833 2.4375,-5.58333 4.625,-7.125 2.1875,-1.54167 5.4375,-2.3125 9.75,-2.3125 3.91667,0 6.83333,0.46875 8.75,1.40625 1.91667,0.91667 3.26042,2.09375 4.03125,3.53125 0.79167,1.41667 1.1875,4.03125 1.1875,7.84375 l -0.0937,10.25 c 0,2.91667 0.13542,5.07292 0.40625,6.46875 0.29167,1.375 0.82292,2.85417 1.59375,4.4375 h -8.6875 c -0.22917,-0.58333 -0.51042,-1.44792 -0.84375,-2.59375 -0.14583,-0.52083 -0.25,-0.86458 -0.3125,-1.03125 -1.5,1.45833 -3.10417,2.55208 -4.8125,3.28125 -1.70833,0.72917 -3.53125,1.09375 -5.46875,1.09375 -3.41667,0 -6.11458,-0.92708 -8.09375,-2.78125 -1.95833,-1.85417 -2.9375,-4.19792 -2.9375,-7.03125 0,-1.875 0.44792,-3.54167 1.34375,-5 0.89583,-1.47917 2.14583,-2.60417 3.75,-3.375 1.625,-0.79167 3.95833,-1.47917 7,-2.0625 4.10417,-0.77083 6.94792,-1.48958 8.53125,-2.15625 v -0.875 c 0,-1.6875 -0.41667,-2.88542 -1.25,-3.59375 -0.83333,-0.72917 -2.40625,-1.09375 -4.71875,-1.09375 -1.5625,0 -2.78125,0.3125 -3.65625,0.9375 -0.875,0.60417 -1.58333,1.67708 -2.125,3.21875 z m 11.75,7.125 c -1.125,0.375 -2.90625,0.82292 -5.34375,1.34375 -2.4375,0.52083 -4.03125,1.03125 -4.78125,1.53125 -1.14583,0.8125 -1.71875,1.84375 -1.71875,3.09375 0,1.22917 0.45833,2.29167 1.375,3.1875 0.91667,0.89583 2.08333,1.34375 3.5,1.34375 1.58333,0 3.09375,-0.52083 4.53125,-1.5625 1.0625,-0.79167 1.76042,-1.76042 2.09375,-2.90625 0.22917,-0.75 0.34375,-2.17708 0.34375,-4.28125 z m 21.625,-17.25 h 8.09375 v 4.53125 c 2.89583,-3.52083 6.34375,-5.28125 10.34375,-5.28125 2.125,0 3.96875,0.4375 5.53125,1.3125 1.5625,0.875 2.84375,2.19792 3.84375,3.96875 1.45833,-1.77083 3.03125,-3.09375 4.71875,-3.96875 1.6875,-0.875 3.48958,-1.3125 5.40625,-1.3125 2.4375,0 4.5,0.5 6.1875,1.5 1.6875,0.97917 2.94792,2.42708 3.78125,4.34375 0.60417,1.41667 0.90625,3.70833 0.90625,6.875 v 21.21875 h -8.78125 v -18.96875 c 0,-3.29167 -0.30208,-5.41667 -0.90625,-6.375 -0.8125,-1.25 -2.0625,-1.875 -3.75,-1.875 -1.22917,0 -2.38542,0.375 -3.46875,1.125 -1.08333,0.75 -1.86458,1.85417 -2.34375,3.3125 -0.47917,1.4375 -0.71875,3.71875 -0.71875,6.84375 v 15.9375 H 274.394 v -18.1875 c 0,-3.22917 -0.15625,-5.3125 -0.46875,-6.25 -0.3125,-0.9375 -0.80208,-1.63542 -1.46875,-2.09375 -0.64583,-0.45833 -1.53125,-0.6875 -2.65625,-0.6875 -1.35417,0 -2.57292,0.36458 -3.65625,1.09375 -1.08333,0.72917 -1.86458,1.78125 -2.34375,3.15625 -0.45833,1.375 -0.6875,3.65625 -0.6875,6.84375 v 16.125 h -8.78125 z m 62.5625,33.1875 v -45.8125 h 8.78125 v 45.8125 z m 21.78125,-12.21875 v -8.78125 h 17.25 v 8.78125 z m 64.625,-4.84375 c 0,-2.91667 0.71875,-5.73958 2.15625,-8.46875 1.4375,-2.72917 3.46875,-4.8125 6.09375,-6.25 2.64583,-1.4375 5.59375,-2.15625 8.84375,-2.15625 5.02083,0 9.13542,1.63542 12.34375,4.90625 3.20833,3.25 4.8125,7.36458 4.8125,12.34375 0,5.02083 -1.625,9.1875 -4.875,12.5 -3.22917,3.29167 -7.30208,4.9375 -12.21875,4.9375 -3.04167,0 -5.94792,-0.6875 -8.71875,-2.0625 -2.75,-1.375 -4.84375,-3.38542 -6.28125,-6.03125 -1.4375,-2.66667 -2.15625,-5.90625 -2.15625,-9.71875 z m 9,0.46875 c 0,3.29167 0.78125,5.8125 2.34375,7.5625 1.5625,1.75 3.48958,2.625 5.78125,2.625 2.29167,0 4.20833,-0.875 5.75,-2.625 1.5625,-1.75 2.34375,-4.29167 2.34375,-7.625 0,-3.25 -0.78125,-5.75 -2.34375,-7.5 -1.54167,-1.75 -3.45833,-2.625 -5.75,-2.625 -2.29167,0 -4.21875,0.875 -5.78125,2.625 -1.5625,1.75 -2.34375,4.27083 -2.34375,7.5625 z m 35.09375,-0.46875 c 0,-2.91667 0.71875,-5.73958 2.15625,-8.46875 1.4375,-2.72917 3.46875,-4.8125 6.09375,-6.25 2.64583,-1.4375 5.59375,-2.15625 8.84375,-2.15625 5.02083,0 9.13542,1.63542 12.34375,4.90625 3.20833,3.25 4.8125,7.36458 4.8125,12.34375 0,5.02083 -1.625,9.1875 -4.875,12.5 -3.22917,3.29167 -7.30208,4.9375 -12.21875,4.9375 -3.04167,0 -5.94792,-0.6875 -8.71875,-2.0625 -2.75,-1.375 -4.84375,-3.38542 -6.28125,-6.03125 -1.4375,-2.66667 -2.15625,-5.90625 -2.15625,-9.71875 z m 9,0.46875 c 0,3.29167 0.78125,5.8125 2.34375,7.5625 1.5625,1.75 3.48958,2.625 5.78125,2.625 2.29167,0 4.20833,-0.875 5.75,-2.625 1.5625,-1.75 2.34375,-4.29167 2.34375,-7.625 0,-3.25 -0.78125,-5.75 -2.34375,-7.5 -1.54167,-1.75 -3.45833,-2.625 -5.75,-2.625 -2.29167,0 -4.21875,0.875 -5.78125,2.625 -1.5625,1.75 -2.34375,4.27083 -2.34375,7.5625 z m 37.125,16.59375 v -45.8125 h 8.78125 v 45.8125 z m 19.6875,-9.46875 8.8125,-1.34375 c 0.375,1.70833 1.13542,3.01042 2.28125,3.90625 1.14583,0.875 2.75,1.3125 4.8125,1.3125 2.27083,0 3.97917,-0.41667 5.125,-1.25 0.77083,-0.58333 1.15625,-1.36458 1.15625,-2.34375 0,-0.66667 -0.20833,-1.21875 -0.625,-1.65625 -0.4375,-0.41667 -1.41667,-0.80208 -2.9375,-1.15625 -7.08333,-1.5625 -11.57292,-2.98958 -13.46875,-4.28125 -2.625,-1.79167 -3.9375,-4.28125 -3.9375,-7.46875 0,-2.875 1.13542,-5.29167 3.40625,-7.25 2.27083,-1.95833 5.79167,-2.9375 10.5625,-2.9375 4.54167,0 7.91667,0.73958 10.125,2.21875 2.20833,1.47917 3.72917,3.66667 4.5625,6.5625 l -8.28125,1.53125 c -0.35417,-1.29167 -1.03125,-2.28125 -2.03125,-2.96875 -0.97917,-0.6875 -2.38542,-1.03125 -4.21875,-1.03125 -2.3125,0 -3.96875,0.32292 -4.96875,0.96875 -0.66667,0.45833 -1,1.05208 -1,1.78125 0,0.625 0.29167,1.15625 0.875,1.59375 0.79167,0.58333 3.52083,1.40625 8.1875,2.46875 4.6875,1.0625 7.95833,2.36458 9.8125,3.90625 1.83333,1.5625 2.75,3.73958 2.75,6.53125 0,3.04167 -1.27083,5.65625 -3.8125,7.84375 -2.54167,2.1875 -6.30208,3.28125 -11.28125,3.28125 -4.52083,0 -8.10417,-0.91667 -10.75,-2.75 -2.625,-1.83333 -4.34375,-4.32292 -5.15625,-7.46875 z"
           id="path1"
           sodipodi:nodetypes="ccsscccccccccsscsccccscscsccscsssccsccccsscssccsccscsscsccsscsscscccccccccccccsscscscsccsssscscssssscscscsccsssscscsssccccccccscscccsssscccscscccssscc" /><g
           id="g24"
           transform="translate(-84.393078,85.303169)"><path
             style="fill:#a05a2c;fill-opacity:1;stroke:none;stroke-width:0.514955"
             d="m 467.0702,406.35318 -0.3883,-38.3796 4.46559,-0.2051 -0.12944,38.51629 z"
             id="path2"
             sodipodi:nodetypes="ccccc" /><path
             style="fill:#d38d5f;fill-opacity:1;stroke:none;stroke-width:0.514955"
             d="m 457.23297,406.76329 9.90194,-0.37594 -0.32357,-38.44794 -9.70779,0.30758 z"
             id="path3"
             sodipodi:nodetypes="ccccc" /><path
             style="fill:#b3b3b3;fill-opacity:1;stroke:none;stroke-width:0.514955"
             d="m 441.76521,368.17863 42.7568,-1.41121 c 0.39623,-3.15609 -2.07182,-5.10347 -5.35752,-5.63329 l -7.34302,0.16288 c -1.22058,-1.63385 -2.09101,-3.42031 -4.8807,-4.05468 l -10.51679,0.30759 c -1.88409,1.10502 -1.84969,2.21005 -2.81525,3.31507 l -6.66602,0.54681 c -5.21643,0.24458 -5.35744,3.31638 -5.1775,6.76683 z"
             id="path4"
             sodipodi:nodetypes="ccccccccc" /><path
             style="fill:#999999;fill-opacity:1;stroke:none;stroke-width:0.514955"
             d="m 484.15592,366.77743 2.77572,-0.0563 c 0.94641,-2.62256 0.51958,-5.26469 -4.84672,-6.36881 l -6.92489,0.17088 c -0.98399,-1.80928 -2.55672,-3.12112 -4.40087,-4.20364 l -13.2026,0.41011 -1.08403,0.82877 10.59767,-0.31613 c 1.16493,0.48582 3.10649,3.00345 4.65974,4.16946 2.55616,-0.10253 5.03986,-0.17087 7.44264,-0.2734 3.72609,1.02069 5.39826,2.8872 4.98334,5.63906 z"
             id="path5"
             sodipodi:nodetypes="cccccccccccc" /><path
             style="fill:none;fill-opacity:1;stroke:#162a5d;stroke-width:1.02991;stroke-dasharray:none;stroke-opacity:1"
             d="m 441.24747,368.48622 46.01494,-1.46956 c 0.44807,-3.35386 0.0613,-6.0769 -4.78917,-6.90354 -3.15156,-0.17243 -4.90128,-0.0473 -6.98962,0.0342 -1.30357,-1.43296 -2.75233,-2.82758 -4.40087,-4.16946 l -13.78506,0.37593 c -1.2503,0.80346 -2.65737,2.5175 -4.07728,4.30617 -1.87546,-0.0691 -4.1656,0.0808 -6.73073,0.37594 -7.31558,1.99339 -4.5223,4.87647 -5.24221,7.45035 z"
             id="path6"
             sodipodi:nodetypes="cccccccccc" /><path
             style="fill:none;fill-opacity:1;stroke:#162a5d;stroke-width:1.02991;stroke-dasharray:none;stroke-opacity:1"
             d="m 456.71522,368.04194 v 39.02893 l 14.75584,-0.47846 0.19417,-39.09729 z"
             id="path7" /><path
             style="fill:none;fill-opacity:1;stroke:#162a5d;stroke-width:0.514696;stroke-dasharray:none;stroke-opacity:1"
             d="m 456.63575,394.39003 4.94812,-0.20193"
             id="path8"
             sodipodi:nodetypes="cc" /><path
             style="fill:none;fill-opacity:1;stroke:#162a5d;stroke-width:0.514696;stroke-dasharray:none;stroke-opacity:1"
             d="m 456.82991,371.93643 4.94812,-0.20193"
             id="path9"
             sodipodi:nodetypes="cc" /><path
             style="fill:none;fill-opacity:1;stroke:#162a5d;stroke-width:0.514696;stroke-dasharray:none;stroke-opacity:1"
             d="m 456.63576,390.18639 4.94812,-0.20193"
             id="path10"
             sodipodi:nodetypes="cc" /><path
             style="fill:none;fill-opacity:1;stroke:#162a5d;stroke-width:0.514696;stroke-dasharray:none;stroke-opacity:1"
             d="m 456.89463,375.76414 4.94812,-0.20193"
             id="path11"
             sodipodi:nodetypes="cc" /><path
             style="fill:none;fill-opacity:1;stroke:#162a5d;stroke-width:0.514696;stroke-dasharray:none;stroke-opacity:1"
             d="m 456.57103,379.42097 4.94812,-0.20193"
             id="path12"
             sodipodi:nodetypes="cc" /><path
             style="fill:none;fill-opacity:1;stroke:#162a5d;stroke-width:0.514696;stroke-dasharray:none;stroke-opacity:1"
             d="m 456.76519,382.90692 4.94812,-0.20193"
             id="path13"
             sodipodi:nodetypes="cc" /><path
             style="fill:none;fill-opacity:1;stroke:#162a5d;stroke-width:0.514696;stroke-dasharray:none;stroke-opacity:1"
             d="m 456.82991,386.66628 4.94812,-0.20193"
             id="path14"
             sodipodi:nodetypes="cc" /><path
             style="fill:none;fill-opacity:1;stroke:#162a5d;stroke-width:0.514696;stroke-dasharray:none;stroke-opacity:1"
             d="m 456.70047,398.73037 4.94812,-0.20193"
             id="path15"
             sodipodi:nodetypes="cc" /><path
             style="fill:none;fill-opacity:1;stroke:#162a5d;stroke-width:0.514696;stroke-dasharray:none;stroke-opacity:1"
             d="m 456.89463,402.86566 4.94812,-0.20193"
             id="path16"
             sodipodi:nodetypes="cc" /><path
             style="fill:none;fill-opacity:1;stroke:#162a5d;stroke-width:0.514696;stroke-dasharray:none;stroke-opacity:1"
             d="m 456.79755,400.88345 2.81241,-0.13358"
             id="path17"
             sodipodi:nodetypes="cc" /><path
             style="fill:none;fill-opacity:1;stroke:#162a5d;stroke-width:0.514696;stroke-dasharray:none;stroke-opacity:1"
             d="m 456.86227,396.61146 2.81241,-0.13358"
             id="path18"
             sodipodi:nodetypes="cc" /><path
             style="fill:none;fill-opacity:1;stroke:#162a5d;stroke-width:0.514696;stroke-dasharray:none;stroke-opacity:1"
             d="m 456.86227,392.30529 2.81241,-0.13358"
             id="path19"
             sodipodi:nodetypes="cc" /><path
             style="fill:none;fill-opacity:1;stroke:#162a5d;stroke-width:0.514696;stroke-dasharray:none;stroke-opacity:1"
             d="m 456.79755,388.44341 2.81241,-0.13358"
             id="path20"
             sodipodi:nodetypes="cc" /><path
             style="fill:none;fill-opacity:1;stroke:#162a5d;stroke-width:0.514696;stroke-dasharray:none;stroke-opacity:1"
             d="m 456.79755,384.82076 2.81241,-0.13358"
             id="path21"
             sodipodi:nodetypes="cc" /><path
             style="fill:none;fill-opacity:1;stroke:#162a5d;stroke-width:0.514696;stroke-dasharray:none;stroke-opacity:1"
             d="m 456.92699,381.26646 2.81241,-0.13358"
             id="path22"
             sodipodi:nodetypes="cc" /><path
             style="fill:none;fill-opacity:1;stroke:#162a5d;stroke-width:0.514696;stroke-dasharray:none;stroke-opacity:1"
             d="m 456.86227,377.71216 2.81241,-0.13358"
             id="path23"
             sodipodi:nodetypes="cc" /><path
             style="fill:none;fill-opacity:1;stroke:#162a5d;stroke-width:0.514696;stroke-dasharray:none;stroke-opacity:1"
             d="m 456.99171,373.85028 2.81241,-0.13358"
             id="path24"
             sodipodi:nodetypes="cc" /></g><g
           id="g33"
           transform="translate(-84.393078,88.857468)"><path
             style="fill:#999999;fill-opacity:1;stroke:#162a5d;stroke-width:1.02991;stroke-dasharray:none;stroke-opacity:1"
             d="m 268.3252,351.96754 c -7.17537,0.98908 -13.43146,3.15707 -17.20687,8.50644 -0.96097,5.10202 2.69691,6.39006 5.87987,8.1198 5.77302,1.8804 8.9356,3.83953 9.86259,6.4765 l -2.74578,24.06938 c 0.71772,2.82095 2.69264,5.18228 9.70175,5.70318 7.00608,0.52288 9.37457,-2.15674 10.06786,-5.99317 l -3.66104,-23.39274 c 1.14977,-2.65652 3.48974,-4.5274 6.58987,-5.89651 6.38954,-1.9786 7.97846,-3.94369 8.05428,-6.17876 l -26.17642,-0.20108 z"
             id="path25"
             sodipodi:nodetypes="cccccccccccc" /><path
             style="fill:#b3b3b3;fill-opacity:1;stroke:#162a5d;stroke-width:1.02991;stroke-dasharray:none;stroke-opacity:1"
             d="m 281.3598,363.17744 13.45791,-0.19934 c -0.85274,-3.47422 -4.84244,-6.53542 -13.49582,-8.20745 z"
             id="path26"
             sodipodi:nodetypes="cccc" /><path
             style="fill:#1e50a3;fill-opacity:1;stroke:#162a5d;stroke-width:1.02991;stroke-dasharray:none;stroke-opacity:1"
             d="m 268.46709,363.04974 26.44315,0.13088"
             id="path27"
             sodipodi:nodetypes="cc" /><path
             style="fill:#f9f9f9;fill-opacity:1;stroke:#162a5d;stroke-width:1.02991;stroke-dasharray:none;stroke-opacity:1"
             d="m 274.48295,395.71663 c -2.82168,0.34339 -4.31831,1.61476 -4.40086,3.21669 0.20379,1.56571 1.33489,3.01441 4.14199,3.21254 3.07416,-0.46593 4.9885,-1.67309 4.98793,-3.12002 -0.25098,-1.75691 -1.6142,-3.23284 -4.72906,-3.30921 z"
             id="path28"
             sodipodi:nodetypes="ccccc" /><path
             style="fill:#cccccc;fill-opacity:1;stroke:#162a5d;stroke-width:0.968499;stroke-dasharray:none;stroke-opacity:1"
             d="m 271.71338,376.79664 -0.0932,15.05156 c 0.23293,1.02665 4.05672,1.3531 5.17109,-0.0419 l -0.0465,-15.17751 c -0.53876,-1.12321 -4.06209,-1.40708 -5.0314,0.16791 z"
             id="path29"
             sodipodi:nodetypes="ccccc" /><path
             style="fill:#162a5d;fill-opacity:1;stroke:none;stroke-width:0.749454;stroke-dasharray:none;stroke-opacity:1"
             d="m 270.10027,370.48404 c 0.4313,0.7254 7.86676,0.62018 8.11778,-0.21186 0.16958,-1.01337 0.25018,-3.44161 -0.0742,-4.27831 -0.84185,-0.49443 -7.17998,-0.53191 -8.0179,0.0318 z"
             id="path33"
             sodipodi:nodetypes="ccccc" /><path
             style="fill:#999999;fill-opacity:1;stroke:none;stroke-width:0.404276;stroke-dasharray:none;stroke-opacity:1"
             d="m 271.79441,367.58602 c -2.04312,0.0313 -1.80348,1.48805 -0.0312,1.43539 l 4.79906,-0.0171 c 1.8915,-0.0376 1.99273,-1.2841 0.0935,-1.38413 z"
             id="path31"
             sodipodi:nodetypes="ccccc" /><path
             style="fill:#999999;fill-opacity:1;stroke:none;stroke-width:0.404276;stroke-dasharray:none;stroke-opacity:1"
             d="m 271.71748,369.14396 c -2.04312,0.0313 -1.80347,1.48805 -0.0312,1.43539 l 4.79906,-0.0171 c 1.8915,-0.0376 1.99272,-1.2841 0.0935,-1.38413 z"
             id="path32"
             sodipodi:nodetypes="ccccc" /><path
             style="fill:#999999;fill-opacity:1;stroke:none;stroke-width:0.404276;stroke-dasharray:none;stroke-opacity:1"
             d="m 271.80269,365.98976 c -2.04312,0.0313 -1.80347,1.48805 -0.0312,1.43539 l 4.79905,-0.0171 c 1.89151,-0.0376 1.99273,-1.2841 0.0935,-1.38413 z"
             id="path30"
             sodipodi:nodetypes="ccccc" /></g></g></g></g></svg>
